<svg width="24" height="24" viewBox="0 0 24 24" fill="none" xmlns="http://www.w3.org/2000/svg">
<path d="M3 4C3 2.895 3.895 2 5 2L19 2C20.105 2 21 2.895 21 4C21 5.105 20.105 6 19 6L5 6C3.895 6 3 5.105 3 4Z" fill="#22A2BD" stroke="#22A2BD" stroke-width="1.5" stroke-linecap="round" stroke-linejoin="round"/>
<path d="M3.00001 12C3.00001 10.895 3.89501 10 5.00001 10L13.316 10C14.421 10 15.316 10.895 15.316 12C15.316 13.105 14.421 14 13.316 14L5.00001 14C3.89501 14 3.00001 13.105 3.00001 12Z" fill="#22A2BD" stroke="#22A2BD" stroke-width="1.5" stroke-linecap="round" stroke-linejoin="round"/>
<path d="M2.99999 20C2.99999 18.895 3.89499 18 4.99999 18L7.63199 18C8.73699 18 9.63199 18.895 9.63199 20C9.63199 21.105 8.73699 22 7.63199 22L4.99999 22C3.89499 22 2.99999 21.105 2.99999 20Z" fill="#22A2BD" stroke="#22A2BD" stroke-width="1.5" stroke-linecap="round" stroke-linejoin="round"/>
</svg>
